<svg xmlns="http://www.w3.org/2000/svg" xmlns:xlink="http://www.w3.org/1999/xlink" width="21.043" height="21.044" viewBox="0 0 21.043 21.044">
  <defs>
    <clipPath id="clip-path">
      <path id="SVGID" d="M80.127,24.99a.248.248,0,0,0,.351,0l2.981-2.981a.248.248,0,0,0,0-.351l-2.981-2.981a.249.249,0,0,0-.351,0l-2.981,2.981a.248.248,0,0,0,0,.351Z" transform="translate(-77.074 -18.606)" fill="#515151"/>
    </clipPath>
    <clipPath id="clip-path-2">
      <path id="SVGID-2" data-name="SVGID" d="M.854,0h3a.853.853,0,0,1,.853.853v3a.854.854,0,0,1-.854.854h-3A.854.854,0,0,1,0,3.857v-3A.854.854,0,0,1,.854,0Z" fill="#515151"/>
    </clipPath>
    <clipPath id="clip-path-3">
      <path id="SVGID-3" data-name="SVGID" d="M36.1,30.659h4.215a.248.248,0,0,0,.248-.248V26.2a.248.248,0,0,0-.248-.248H36.1a.248.248,0,0,0-.248.248v4.215A.249.249,0,0,0,36.1,30.659Z" transform="translate(-35.856 -25.948)" fill="#515151"/>
    </clipPath>
    <clipPath id="clip-path-4">
      <path id="SVGID-4" data-name="SVGID" d="M32.332,50.419V46.2a.248.248,0,0,0-.248-.248H27.869a.248.248,0,0,0-.248.248v4.215a.248.248,0,0,0,.248.248h4.215A.248.248,0,0,0,32.332,50.419Z" transform="translate(-27.621 -45.956)" fill="#515151"/>
    </clipPath>
    <clipPath id="clip-path-5">
      <path id="SVGID-5" data-name="SVGID" d="M.854,0h3a.854.854,0,0,1,.854.854v3a.855.855,0,0,1-.855.855h-3A.855.855,0,0,1,0,3.857v-3A.854.854,0,0,1,.854,0Z" fill="#515151"/>
    </clipPath>
    <clipPath id="clip-path-6">
      <path id="SVGID-6" data-name="SVGID" d="M80.212,65.84H76a.248.248,0,0,0-.248.248V70.3a.248.248,0,0,0,.248.248h4.215a.248.248,0,0,0,.248-.248V66.088A.248.248,0,0,0,80.212,65.84Z" transform="translate(-75.749 -65.84)" fill="#515151"/>
    </clipPath>
    <clipPath id="clip-path-7">
      <path id="SVGID-7" data-name="SVGID" d="M40.32,65.84H36.105a.248.248,0,0,0-.248.248V70.3a.248.248,0,0,0,.248.248H40.32a.248.248,0,0,0,.248-.248V66.088A.248.248,0,0,0,40.32,65.84Z" transform="translate(-35.857 -65.84)" fill="#515151"/>
    </clipPath>
    <clipPath id="clip-path-8">
      <path id="SVGID-8" data-name="SVGID" d="M.854,0h3a.853.853,0,0,1,.853.853v3a.854.854,0,0,1-.854.854h-3A.854.854,0,0,1,0,3.858v-3A.854.854,0,0,1,.854,0Z" fill="#515151"/>
    </clipPath>
  </defs>
  <g id="Group_19" data-name="Group 19" transform="translate(0 0)">
    <g id="Group_4" data-name="Group 4" transform="translate(14.362 0.223)">
      <path id="SVGID-9" data-name="SVGID" d="M80.127,24.99a.248.248,0,0,0,.351,0l2.981-2.981a.248.248,0,0,0,0-.351l-2.981-2.981a.249.249,0,0,0-.351,0l-2.981,2.981a.248.248,0,0,0,0,.351Z" transform="translate(-77.074 -18.606)" fill="#515151"/>
      <g id="Group_3" data-name="Group 3" clip-path="url(#clip-path)">
        <rect id="Rectangle_1" data-name="Rectangle 1" width="22.867" height="22.868" transform="translate(-15.274 -1.135)" fill="#515151"/>
      </g>
    </g>
    <g id="Group_6" data-name="Group 6" transform="translate(8.166 0)">
      <path id="SVGID-10" data-name="SVGID" d="M.854,0h3a.853.853,0,0,1,.853.853v3a.854.854,0,0,1-.854.854h-3A.854.854,0,0,1,0,3.857v-3A.854.854,0,0,1,.854,0Z" fill="#515151"/>
      <g id="Group_5" data-name="Group 5" clip-path="url(#clip-path-2)">
        <rect id="Rectangle_2" data-name="Rectangle 2" width="22.867" height="22.868" transform="translate(-9.078 -0.912)" fill="#515151"/>
      </g>
    </g>
    <g id="Group_8" data-name="Group 8" transform="translate(2.392 2.356)">
      <path id="SVGID-11" data-name="SVGID" d="M36.1,30.659h4.215a.248.248,0,0,0,.248-.248V26.2a.248.248,0,0,0-.248-.248H36.1a.248.248,0,0,0-.248.248v4.215A.249.249,0,0,0,36.1,30.659Z" transform="translate(-35.856 -25.948)" fill="#515151"/>
      <g id="Group_7" data-name="Group 7" clip-path="url(#clip-path-3)">
        <rect id="Rectangle_3" data-name="Rectangle 3" width="22.867" height="22.868" transform="translate(-3.303 -3.304)" fill="#515151"/>
      </g>
    </g>
    <g id="Group_10" data-name="Group 10" transform="translate(0 8.166)">
      <path id="SVGID-12" data-name="SVGID" d="M32.332,50.419V46.2a.248.248,0,0,0-.248-.248H27.869a.248.248,0,0,0-.248.248v4.215a.248.248,0,0,0,.248.248h4.215A.248.248,0,0,0,32.332,50.419Z" transform="translate(-27.621 -45.956)" fill="#515151"/>
      <g id="Group_9" data-name="Group 9" clip-path="url(#clip-path-4)">
        <rect id="Rectangle_4" data-name="Rectangle 4" width="22.867" height="22.868" transform="translate(-0.912 -9.078)" fill="#515151"/>
      </g>
    </g>
    <g id="Group_12" data-name="Group 12" transform="translate(16.333 8.166)">
      <path id="SVGID-13" data-name="SVGID" d="M.854,0h3a.854.854,0,0,1,.854.854v3a.855.855,0,0,1-.855.855h-3A.855.855,0,0,1,0,3.857v-3A.854.854,0,0,1,.854,0Z" fill="#515151"/>
      <g id="Group_11" data-name="Group 11" clip-path="url(#clip-path-5)">
        <rect id="Rectangle_5" data-name="Rectangle 5" width="22.867" height="22.868" transform="translate(-17.244 -9.078)" fill="#515151"/>
      </g>
    </g>
    <g id="Group_14" data-name="Group 14" transform="translate(13.977 13.941)">
      <path id="SVGID-14" data-name="SVGID" d="M80.212,65.84H76a.248.248,0,0,0-.248.248V70.3a.248.248,0,0,0,.248.248h4.215a.248.248,0,0,0,.248-.248V66.088A.248.248,0,0,0,80.212,65.84Z" transform="translate(-75.749 -65.84)" fill="#515151"/>
      <g id="Group_13" data-name="Group 13" clip-path="url(#clip-path-6)">
        <rect id="Rectangle_6" data-name="Rectangle 6" width="22.867" height="22.868" transform="translate(-14.852 -14.853)" fill="#515151"/>
      </g>
    </g>
    <g id="Group_16" data-name="Group 16" transform="translate(2.392 13.941)">
      <path id="SVGID-15" data-name="SVGID" d="M40.32,65.84H36.105a.248.248,0,0,0-.248.248V70.3a.248.248,0,0,0,.248.248H40.32a.248.248,0,0,0,.248-.248V66.088A.248.248,0,0,0,40.32,65.84Z" transform="translate(-35.857 -65.84)" fill="#515151"/>
      <g id="Group_15" data-name="Group 15" clip-path="url(#clip-path-7)">
        <rect id="Rectangle_7" data-name="Rectangle 7" width="22.867" height="22.868" transform="translate(-3.304 -14.853)" fill="#515151"/>
      </g>
    </g>
    <g id="Group_18" data-name="Group 18" transform="translate(8.166 16.333)">
      <path id="SVGID-16" data-name="SVGID" d="M.854,0h3a.853.853,0,0,1,.853.853v3a.854.854,0,0,1-.854.854h-3A.854.854,0,0,1,0,3.858v-3A.854.854,0,0,1,.854,0Z" fill="#515151"/>
      <g id="Group_17" data-name="Group 17" clip-path="url(#clip-path-8)">
        <rect id="Rectangle_8" data-name="Rectangle 8" width="22.867" height="22.868" transform="translate(-9.078 -17.245)" fill="#515151"/>
      </g>
    </g>
  </g>
</svg>
