<svg width="172" height="37" viewBox="0 0 172 37" fill="none" xmlns="http://www.w3.org/2000/svg">
<g id="Group 1">
<g id="Group 2">
<g id="Group 1_2">
<path id="Path 1" d="M47.5723 21.1182C47.574 21.2232 47.5549 21.3276 47.5163 21.4254C47.4776 21.5231 47.4201 21.6122 47.347 21.6877C47.2737 21.7597 47.187 21.8166 47.0917 21.8551C46.9965 21.8936 46.8946 21.913 46.7918 21.9121C46.6866 21.9156 46.5818 21.8975 46.4839 21.8588C46.386 21.8202 46.2971 21.7618 46.2226 21.6874C46.1482 21.613 46.0898 21.524 46.0512 21.4261C46.0125 21.3282 45.9944 21.2234 45.9979 21.1182V3.77405C45.9854 3.59877 46.0378 3.42502 46.1452 3.28591C46.2525 3.1468 46.4073 3.05207 46.5801 3.01976C46.7464 2.96095 46.9285 2.96516 47.0919 3.03159C47.2553 3.09802 47.3887 3.22206 47.4668 3.38023L55.3522 16.4113L63.2375 3.38023C63.3156 3.22227 63.4488 3.09837 63.6121 3.03195C63.7753 2.96554 63.9572 2.9612 64.1234 3.01976C64.2961 3.05207 64.4509 3.1468 64.5582 3.28591C64.6656 3.42502 64.718 3.59877 64.7055 3.77405V21.1182C64.7068 21.2243 64.6863 21.3296 64.6454 21.4275C64.6045 21.5255 64.544 21.614 64.4676 21.6877C64.3952 21.7611 64.3085 21.8189 64.2128 21.8575C64.1172 21.8961 64.0147 21.9147 63.9116 21.9121C63.7038 21.9139 63.5038 21.8332 63.3555 21.6877C63.208 21.5352 63.127 21.3304 63.1303 21.1182V6.60916L56.0262 18.3443L56.0136 18.357V18.3696C55.9937 18.39 55.9759 18.4123 55.9605 18.4363L55.9073 18.4894L55.8541 18.5426C55.8307 18.5581 55.8087 18.5755 55.7883 18.5949C55.7442 18.621 55.7352 18.6255 55.7622 18.6084C55.7703 18.5994 55.7568 18.6084 55.7225 18.621C55.698 18.6377 55.6713 18.6511 55.6432 18.6607C55.6219 18.6708 55.5999 18.6795 55.5775 18.6868C55.5519 18.6956 55.5252 18.7002 55.4982 18.7003C55.4775 18.7096 55.455 18.7143 55.4324 18.7138C55.4068 18.7221 55.38 18.7264 55.3531 18.7264C55.3258 18.7264 55.2988 18.7221 55.2729 18.7138C55.2502 18.7142 55.2277 18.7096 55.2071 18.7003C55.1801 18.7002 55.1533 18.6957 55.1278 18.6868C55.1052 18.6797 55.0832 18.671 55.062 18.6607C55.0339 18.6512 55.0072 18.6378 54.9827 18.621H54.9566L54.9558 18.6158L54.9529 18.6114L54.9483 18.6087L54.943 18.6084C54.9692 18.6255 54.9611 18.621 54.9169 18.5949C54.8968 18.5753 54.8747 18.5578 54.8511 18.5426L54.7961 18.4831L54.743 18.43C54.7272 18.4062 54.7094 18.3839 54.6898 18.3633V18.3506L54.6763 18.338L47.5723 6.60466V21.1137V21.1182Z" fill="white"/>
<path id="Path 2" d="M78.2788 4.51443C76.1844 4.52299 74.1785 5.3597 72.6988 6.84192C71.2191 8.32414 70.3858 10.3315 70.3808 12.4259C70.3783 13.7274 70.697 15.0093 71.3089 16.158C71.9207 17.3067 72.8067 18.2865 73.8882 19.0106C74.9697 19.7346 76.2132 20.1804 77.5084 20.3084C78.8035 20.4364 80.1103 20.2427 81.3126 19.7444C82.5149 19.2462 83.5755 18.4587 84.4004 17.4521C85.2254 16.4454 85.789 15.2507 86.0412 13.9739C86.2935 12.6971 86.2266 11.3778 85.8466 10.133C85.4665 8.88831 84.785 7.75667 83.8625 6.83857C83.1407 6.088 82.2722 5.494 81.311 5.09354C80.3497 4.69308 79.3164 4.49473 78.2752 4.51082L78.2788 4.51443ZM78.2788 21.9072C77.0331 21.9073 75.7995 21.6621 74.6486 21.1854C73.4977 20.7087 72.4519 20.01 71.571 19.1291C70.6902 18.2483 69.9915 17.2025 69.5148 16.0516C69.0381 14.9007 68.7929 13.6671 68.793 12.4214C68.793 10.8614 69.1777 9.32555 69.913 7.9498C70.6484 6.57404 71.7117 5.40087 73.0087 4.5342C74.3058 3.66754 75.7966 3.13413 77.349 2.98123C78.9015 2.82832 80.4677 3.06065 81.9089 3.65761C83.3501 4.25458 84.6218 5.19777 85.6114 6.40363C86.6011 7.60949 87.278 9.04081 87.5824 10.5708C87.8867 12.1008 87.809 13.6822 87.3562 15.175C86.9033 16.6678 86.0893 18.0258 84.9863 19.1289C84.1173 20.0256 83.0739 20.7348 81.9202 21.2126C80.7666 21.6905 79.5273 21.9269 78.2788 21.9072Z" fill="white"/>
<path id="Path 3" d="M93.8244 20.3261H99.473C100.515 20.3486 101.527 19.975 102.305 19.2807C102.672 18.9711 102.966 18.5846 103.167 18.1486C103.368 17.7125 103.471 17.2376 103.468 16.7574C103.474 16.2833 103.374 15.8138 103.175 15.3835C102.976 14.9532 102.683 14.5731 102.317 14.271C101.54 13.5879 100.533 13.2238 99.4992 13.2518H93.8217V20.3297L93.8244 20.3261ZM93.8244 11.6747L99.1297 11.6612C100.172 11.6841 101.183 11.3001 101.948 10.5906C102.317 10.2701 102.612 9.87353 102.813 9.42815C103.014 8.98277 103.116 8.49914 103.112 8.01052C103.116 7.5367 103.015 7.06784 102.816 6.63783C102.617 6.20783 102.325 5.82743 101.961 5.52416C101.176 4.84736 100.167 4.48862 99.1306 4.51844L93.8253 4.54458V11.6756L93.8244 11.6747ZM93.0305 21.9148C92.8213 21.9105 92.6219 21.8254 92.4739 21.6775C92.326 21.5295 92.2409 21.3301 92.2365 21.1209V3.74974C92.2341 3.64671 92.2528 3.54427 92.2916 3.44878C92.3303 3.35329 92.3883 3.26678 92.4618 3.19461C92.5353 3.11809 92.6236 3.05742 92.7214 3.01635C92.8192 2.97528 92.9244 2.95467 93.0305 2.95579L99.1297 2.92966C100.588 2.89163 102.005 3.41782 103.085 4.39858C103.599 4.84784 104.01 5.40337 104.289 6.02682C104.567 6.65027 104.707 7.32678 104.699 8.00962C104.703 8.87868 104.474 9.733 104.038 10.4843C103.614 11.2345 103.009 11.8668 102.278 12.3236C103.105 12.7388 103.804 13.3696 104.302 14.1494C104.92 15.126 105.17 16.2905 105.008 17.4346C104.845 18.5787 104.281 19.6276 103.416 20.3936C102.353 21.3996 100.936 21.9461 99.473 21.9148H93.0305Z" fill="white"/>
<path id="Path 4" d="M111.486 21.1175C111.486 21.3281 111.403 21.53 111.254 21.6789C111.105 21.8278 110.903 21.9114 110.692 21.9114C110.482 21.9114 110.28 21.8278 110.131 21.6789C109.982 21.53 109.898 21.3281 109.898 21.1175V3.78418C109.898 3.57361 109.982 3.37167 110.131 3.22277C110.28 3.07388 110.482 2.99023 110.692 2.99023C110.903 2.99023 111.105 3.07388 111.254 3.22277C111.403 3.37167 111.486 3.57361 111.486 3.78418V21.1175Z" fill="white"/>
<path id="Path 5" d="M120.071 18.7902H124.371C125.097 18.8073 125.804 18.5525 126.353 18.0756C126.61 17.8719 126.818 17.6124 126.96 17.3167C127.102 17.021 127.175 16.6968 127.173 16.3688C127.174 16.0493 127.102 15.734 126.961 15.4472C126.82 15.1604 126.615 14.9099 126.362 14.7151C125.811 14.2517 125.11 14.0067 124.39 14.0266H120.065V18.7893L120.071 18.7902ZM120.071 10.9049H124.067C124.788 10.9157 125.486 10.6563 126.025 10.1776C126.281 9.96403 126.487 9.69698 126.629 9.39527C126.77 9.09355 126.844 8.76448 126.845 8.43116C126.847 8.10962 126.775 7.79194 126.634 7.50279C126.494 7.21365 126.288 6.96083 126.034 6.76397C125.483 6.30056 124.782 6.05555 124.062 6.07547L120.067 6.10161V10.904L120.071 10.9049ZM118.511 21.9119C118.098 21.9068 117.704 21.7406 117.412 21.4488C117.121 21.157 116.954 20.7628 116.949 20.3502V4.53806C116.947 4.33424 116.986 4.13203 117.063 3.94347C117.141 3.7549 117.255 3.58383 117.4 3.44042C117.691 3.1479 118.086 2.98154 118.498 2.97721L124.054 2.95108C125.61 2.91228 127.12 3.48196 128.262 4.53896C128.809 5.02683 129.244 5.62671 129.539 6.29784C129.833 6.96897 129.98 7.69563 129.969 8.42845C129.975 9.14719 129.833 9.85952 129.554 10.5216C129.274 11.1837 128.861 11.7815 128.342 12.2783C128.963 12.7612 129.463 13.3819 129.803 14.0913C130.143 14.8007 130.313 15.5795 130.3 16.3661C130.307 17.1057 130.154 17.8381 129.853 18.5137C129.551 19.1893 129.108 19.7922 128.554 20.2817C127.429 21.3546 125.926 21.9397 124.372 21.9092L118.511 21.9119Z" fill="white"/>
<path id="Path 6" d="M143.661 6.03625C141.972 6.04172 140.353 6.71528 139.158 7.90994C137.963 9.10461 137.29 10.7234 137.284 12.413C137.284 14.1043 137.956 15.7264 139.152 16.9224C140.348 18.1183 141.97 18.7902 143.661 18.7902C145.352 18.7902 146.974 18.1183 148.17 16.9224C149.366 15.7264 150.038 14.1043 150.038 12.413C150.039 11.5754 149.875 10.7458 149.555 9.97175C149.234 9.19771 148.765 8.49441 148.172 7.90211C147.58 7.30981 146.877 6.84013 146.103 6.51996C145.329 6.1998 144.499 6.03542 143.661 6.03625ZM143.661 21.9124C141.144 21.9038 138.733 20.8999 136.953 19.1197C135.173 17.3394 134.17 14.9275 134.162 12.4103C134.161 10.8482 134.546 9.31005 135.281 7.93203C136.017 6.554 137.081 5.37866 138.38 4.5101C139.678 3.64153 141.17 3.10655 142.725 2.95254C144.279 2.79852 145.848 3.03023 147.291 3.62713C148.735 4.22404 150.009 5.16772 151.001 6.3746C151.992 7.58147 152.671 9.0143 152.977 10.5462C153.283 12.078 153.206 13.6617 152.754 15.1568C152.301 16.6519 151.487 18.0124 150.383 19.1178C149.513 20.0178 148.468 20.7301 147.313 21.2105C146.157 21.691 144.915 21.9296 143.663 21.9115L143.661 21.9124Z" fill="white"/>
<path id="Path 7" d="M170.694 3.27205C171.031 3.51355 171.259 3.87847 171.328 4.28729C171.397 4.69612 171.302 5.11573 171.063 5.45471L166.098 12.4533L171.059 19.4518C171.18 19.6181 171.265 19.8069 171.311 20.007C171.356 20.2071 171.361 20.4143 171.324 20.6162C171.261 20.9771 171.073 21.3043 170.793 21.541C170.513 21.7778 170.159 21.909 169.792 21.9121C169.542 21.9195 169.294 21.8627 169.071 21.7469C168.849 21.6311 168.66 21.4602 168.523 21.2506L164.197 15.1388L159.871 21.2506C159.694 21.5014 159.446 21.694 159.159 21.8042C158.872 21.9144 158.559 21.9372 158.259 21.8697C157.959 21.8023 157.686 21.6476 157.474 21.4252C157.262 21.2027 157.12 20.9225 157.067 20.6198C157.03 20.4179 157.034 20.2107 157.08 20.0106C157.125 19.8104 157.21 19.6216 157.331 19.4555L162.293 12.4569L157.331 5.45832C157.152 5.20656 157.051 4.90728 157.042 4.59833C157.032 4.28937 157.115 3.98462 157.279 3.72262C157.443 3.46062 157.681 3.25314 157.963 3.12642C158.245 2.9997 158.558 2.95943 158.863 3.01071C159.064 3.04433 159.256 3.11737 159.429 3.22564C159.601 3.3339 159.751 3.47525 159.869 3.64153L164.194 9.75334L168.52 3.64153C168.637 3.47517 168.787 3.33376 168.959 3.22548C169.132 3.1172 169.324 3.0442 169.525 3.01071C169.727 2.97414 169.934 2.97875 170.134 3.02428C170.335 3.06981 170.524 3.15531 170.69 3.27565L170.694 3.27205Z" fill="white"/>
<path id="Path 8" d="M46.2911 30.3565C46.2911 31.6029 46.9661 32.7194 48.1529 32.7194C49.3398 32.7194 50.0229 31.62 50.0229 30.2953C50.0229 29.1354 49.4164 27.9234 48.161 27.9234C46.9057 27.9234 46.2911 29.0751 46.2911 30.3565ZM50.8186 30.2619C50.8186 32.2697 49.5984 33.3349 48.1088 33.3349C46.5677 33.3349 45.4863 32.14 45.4863 30.3746C45.4863 28.5217 46.6371 27.3105 48.1962 27.3105C49.7895 27.3105 50.8195 28.5307 50.8195 30.2628L50.8186 30.2619Z" fill="white"/>
<path id="Path 9" d="M53.1207 27.4062V30.8605C53.1207 32.1681 53.7011 32.7214 54.4797 32.7214C55.3457 32.7214 55.8991 32.1501 55.8991 30.8605V27.4062H56.6606V30.8082C56.6606 32.5998 55.717 33.3315 54.4527 33.3315C53.2577 33.3315 52.3574 32.6475 52.3574 30.838V27.4062H53.1207Z" fill="white"/>
<path id="Path 10" d="M59.6494 28.047H57.875V27.4062H62.1953V28.047H60.4118V33.2414H59.6503L59.6494 28.047Z" fill="white"/>
<path id="Path 11" d="M66.2794 30.3565C66.2794 31.6029 66.9543 32.7194 68.1412 32.7194C69.3281 32.7194 70.0103 31.62 70.0103 30.2953C70.0103 29.1354 69.4047 27.9234 68.1493 27.9234C66.894 27.9234 66.2794 29.0751 66.2794 30.3565ZM70.8069 30.2619C70.8069 32.2697 69.5867 33.3349 68.097 33.3349C66.556 33.3349 65.4746 32.14 65.4746 30.3746C65.4746 28.5217 66.6254 27.3105 68.1836 27.3105C69.7759 27.3105 70.8069 28.5298 70.8069 30.2619Z" fill="white"/>
<path id="Path 12" d="M72.3555 27.4062H75.4979V28.0371H73.1089V29.9764H75.3167V30.6H73.1089V33.2405H72.3555V27.4062Z" fill="white"/>
<path id="Path 13" d="M80.3037 28.047H78.5293V27.4062H82.8477V28.047H81.0643V33.2414H80.3028L80.3037 28.047Z" fill="white"/>
<path id="Path 14" d="M84.8217 27.4062V29.8476H87.6442V27.4062H88.4057V33.2414H87.6442V30.5054H84.8217V33.2414H84.0684V27.4062H84.8217Z" fill="white"/>
<path id="Path 15" d="M93.3049 30.5054H91.0366V32.6088H93.5644V33.2396H90.2832V27.4062H93.4373V28.0371H91.0393V29.8809H93.3076V30.5045L93.3049 30.5054Z" fill="white"/>
<path id="Path 16" d="M98.2747 32.6679C98.4837 32.6962 98.6947 32.708 98.9055 32.7031C99.6842 32.7031 100.403 32.4174 100.403 31.5694C100.403 30.7728 99.7193 30.4438 98.8974 30.4438H98.2738V32.6679H98.2747ZM98.2747 29.8743H98.9587C99.7554 29.8743 100.22 29.4588 100.22 28.8956C100.22 28.2116 99.7013 27.944 98.9389 27.944C98.7157 27.9383 98.4925 27.9558 98.2729 27.9962V29.8743H98.2747ZM97.5213 27.4853C97.9754 27.4011 98.4365 27.3603 98.8983 27.3636C99.4655 27.3116 100.033 27.462 100.5 27.788C100.658 27.9076 100.785 28.064 100.87 28.2436C100.954 28.4232 100.993 28.6207 100.985 28.819C100.975 29.1091 100.875 29.3888 100.698 29.6187C100.521 29.8487 100.276 30.0172 99.9978 30.1005V30.1176C100.336 30.1866 100.64 30.3697 100.859 30.6361C101.078 30.9026 101.199 31.2362 101.201 31.5811C101.205 31.7999 101.163 32.0172 101.078 32.2189C100.993 32.4206 100.867 32.6024 100.708 32.7527C100.126 33.1761 99.4075 33.3702 98.6911 33.2979C98.2994 33.3007 97.9081 33.2775 97.5195 33.2285V27.4825L97.5213 27.4853Z" fill="white"/>
<path id="Path 17" d="M103.242 30.3565C103.242 31.6029 103.917 32.7194 105.103 32.7194C106.289 32.7194 106.973 31.62 106.973 30.2953C106.973 29.1354 106.368 27.9234 105.111 27.9234C103.855 27.9234 103.242 29.0751 103.242 30.3565ZM107.77 30.2619C107.77 32.2697 106.55 33.3349 105.06 33.3349C103.519 33.3349 102.438 32.14 102.438 30.3746C102.438 28.5217 103.588 27.3105 105.147 27.3105C106.741 27.3105 107.771 28.5307 107.771 30.2628L107.77 30.2619Z" fill="white"/>
<path id="Path 18" d="M112.281 33.2403L111.537 31.9508C111.234 31.4578 111.044 31.1397 110.862 30.7991H110.844C110.68 31.137 110.516 31.4488 110.214 31.9589L109.513 33.2403H108.646L110.43 30.2881L108.718 27.4043H109.592L110.362 28.7723C110.579 29.1535 110.743 29.4473 110.903 29.7636H110.929C111.094 29.4175 111.241 29.149 111.457 28.7723L112.254 27.4043H113.12L111.345 30.2439L113.162 33.2385L112.281 33.2403Z" fill="white"/>
<path id="Path 19" d="M117.759 28.047H115.984V27.4062H120.305V28.047H118.524V33.2414H117.762V28.047H117.759Z" fill="white"/>
<path id="Path 20" d="M124.546 30.5054H122.278V32.6088H124.809V33.2396H121.527V27.4062H124.681V28.0371H122.283V29.8809H124.552V30.5045L124.546 30.5054Z" fill="white"/>
<path id="Path 21" d="M130.433 33.053C129.944 33.2533 129.419 33.3479 128.892 33.3306C128.501 33.3545 128.109 33.294 127.744 33.1531C127.379 33.0122 127.048 32.7943 126.774 32.5142C126.501 32.2341 126.291 31.8983 126.158 31.5298C126.026 31.1612 125.975 30.7685 126.008 30.3783C125.985 29.9714 126.048 29.5641 126.192 29.1831C126.337 28.8021 126.56 28.4558 126.848 28.1668C127.135 27.8777 127.48 27.6525 127.861 27.5056C128.241 27.3587 128.648 27.2936 129.055 27.3143C129.53 27.2943 130.004 27.3831 130.44 27.5739L130.26 28.1885C129.89 28.0215 129.487 27.9387 129.082 27.946C128.767 27.9282 128.452 27.9792 128.159 28.0954C127.866 28.2116 127.601 28.3904 127.384 28.6191C127.167 28.8479 127.003 29.1212 126.902 29.42C126.802 29.7189 126.767 30.0361 126.802 30.3495C126.769 30.6567 126.803 30.9673 126.903 31.2597C127.003 31.5521 127.165 31.8192 127.379 32.0424C127.592 32.2655 127.852 32.4393 128.14 32.5516C128.428 32.6639 128.736 32.712 129.045 32.6926C129.467 32.6986 129.886 32.616 130.274 32.4501L130.429 33.0476L130.433 33.053Z" fill="white"/>
<path id="Path 22" d="M132.701 27.4062V29.8476H135.523V27.4062H136.286V33.2414H135.523V30.5054H132.701V33.2414H131.947V27.4062H132.701Z" fill="white"/>
<path id="Path 23" d="M138.162 33.2405V27.4062H138.984L140.854 30.3585C141.244 30.9656 141.594 31.5978 141.901 32.251L141.919 32.2429C141.85 31.4634 141.829 30.7532 141.829 29.8448V27.4062H142.539V33.2405H141.776L139.924 30.2801C139.521 29.6533 139.157 29.0026 138.833 28.3318L138.806 28.3408C138.851 29.077 138.867 29.7782 138.867 30.7478V33.2405H138.162Z" fill="white"/>
<path id="Path 24" d="M144.889 30.3565C144.889 31.6029 145.564 32.7194 146.75 32.7194C147.936 32.7194 148.621 31.62 148.621 30.2953C148.621 29.1354 148.014 27.9234 146.759 27.9234C145.503 27.9234 144.889 29.0751 144.889 30.3565ZM149.416 30.2619C149.416 32.2697 148.194 33.3349 146.706 33.3349C145.165 33.3349 144.084 32.14 144.084 30.3746C144.084 28.5217 145.236 27.3105 146.793 27.3105C148.385 27.3105 149.416 28.5298 149.416 30.2619Z" fill="white"/>
<path id="Path 25" d="M150.965 27.4062H151.718V32.6088H154.212V33.2396H150.968V27.4062H150.965Z" fill="white"/>
<path id="Path 26" d="M155.744 30.3565C155.744 31.6029 156.419 32.7194 157.605 32.7194C158.791 32.7194 159.476 31.62 159.476 30.2953C159.476 29.1354 158.87 27.9234 157.616 27.9234C156.362 27.9234 155.745 29.0751 155.745 30.3565H155.744ZM160.272 30.2619C160.272 32.2697 159.05 33.3349 157.562 33.3349C156.02 33.3349 154.939 32.14 154.939 30.3746C154.939 28.5217 156.09 27.3105 157.648 27.3105C159.242 27.3105 160.272 28.5298 160.272 30.2619Z" fill="white"/>
<path id="Path 27" d="M166.26 32.9785C165.686 33.1858 165.08 33.2942 164.469 33.2993C164.07 33.3377 163.668 33.2883 163.291 33.1547C162.914 33.0211 162.57 32.8065 162.285 32.526C161.999 32.2455 161.779 31.9059 161.639 31.531C161.498 31.1561 161.442 30.7551 161.473 30.3561C161.46 29.9441 161.534 29.5339 161.69 29.1525C161.846 28.771 162.081 28.4268 162.379 28.1423C162.677 27.8579 163.033 27.6398 163.421 27.5021C163.81 27.3644 164.223 27.3103 164.634 27.3434C165.132 27.3321 165.627 27.4242 166.087 27.6138L165.907 28.2284C165.5 28.0507 165.059 27.9649 164.615 27.977C164.301 27.9527 163.986 27.9967 163.69 28.1059C163.395 28.2151 163.127 28.3869 162.904 28.6095C162.682 28.8321 162.51 29.1002 162.401 29.3955C162.291 29.6908 162.247 30.0062 162.272 30.32C162.24 30.6284 162.275 30.94 162.376 31.2332C162.476 31.5265 162.639 31.7944 162.854 32.0184C163.068 32.2424 163.328 32.4171 163.617 32.5304C163.905 32.6438 164.215 32.6931 164.525 32.6748C164.867 32.6935 165.209 32.6404 165.529 32.5189V30.7805H164.344V30.1749H166.265V32.9785H166.26Z" fill="white"/>
<path id="Path 28" d="M169.282 33.2391V30.7636L167.438 27.4049H168.295L169.116 29.0108C169.342 29.4524 169.515 29.8074 169.696 30.2139H169.714C169.879 29.8336 170.074 29.4524 170.301 29.0108L171.141 27.4004H171.998L170.042 30.751V33.2355L169.282 33.2391Z" fill="white"/>
</g>
</g>
<g id="Group 19">
<g id="Group 4">
<path id="SVGID" d="M29.9942 11.3816C30.0743 11.4617 30.1829 11.5066 30.2961 11.5066C30.4093 11.5066 30.5179 11.4617 30.598 11.3816L35.7347 6.24492C35.7745 6.20524 35.806 6.15812 35.8275 6.10624C35.849 6.05435 35.8601 5.99874 35.8601 5.94257C35.8601 5.88641 35.849 5.83079 35.8275 5.77891C35.806 5.72703 35.7745 5.6799 35.7347 5.64023L30.598 0.503497C30.5178 0.423701 30.4092 0.378906 30.2961 0.378906C30.1829 0.378906 30.0744 0.423701 29.9942 0.503497L24.8575 5.64023C24.7774 5.72048 24.7324 5.82921 24.7324 5.94257C24.7324 6.05594 24.7774 6.16467 24.8575 6.24492L29.9942 11.3816Z" fill="white"/>
<g id="Clip path group">
<mask id="mask0_1625_111991" style="mask-type:luminance" maskUnits="userSpaceOnUse" x="24" y="0" width="12" height="12">
<g id="clip-path">
<path id="SVGID_2" d="M29.9942 11.3797C30.0743 11.4597 30.1829 11.5047 30.2961 11.5047C30.4093 11.5047 30.5179 11.4597 30.598 11.3797L35.7347 6.24297C35.7745 6.20329 35.806 6.15616 35.8275 6.10428C35.849 6.0524 35.8601 5.99679 35.8601 5.94062C35.8601 5.88445 35.849 5.82884 35.8275 5.77696C35.806 5.72508 35.7745 5.67795 35.7347 5.63827L30.598 0.501543C30.5178 0.421748 30.4092 0.376953 30.2961 0.376953C30.1829 0.376953 30.0744 0.421748 29.9942 0.501543L24.8575 5.63827C24.7774 5.71852 24.7324 5.82726 24.7324 5.94062C24.7324 6.05398 24.7774 6.16272 24.8575 6.24297L29.9942 11.3797Z" fill="white"/>
</g>
</mask>
<g mask="url(#mask0_1625_111991)">
<g id="Group 3">
<path id="Rectangle 1" d="M37.8164 -1.57227H-1.57422V37.8183H37.8164V-1.57227Z" fill="white"/>
</g>
</g>
</g>
</g>
<g id="Group 6">
<path id="SVGID_3" d="M14.8321 0H21.4107C21.6135 0.00166413 21.8074 0.0833868 21.9502 0.227367C22.093 0.371348 22.1731 0.565922 22.1731 0.768707V7.34733C22.1715 7.54972 22.0901 7.74332 21.9468 7.88618C21.8034 8.02905 21.6095 8.10969 21.4071 8.11063H14.8321C14.6288 8.11063 14.4337 8.03017 14.2895 7.88681C14.1453 7.74345 14.0637 7.54886 14.0625 7.34552V0.769608C14.0625 0.565496 14.1436 0.369743 14.2879 0.225413C14.4322 0.0810835 14.628 0 14.8321 0Z" fill="white"/>
<g id="Clip path group_2">
<mask id="mask1_1625_111991" style="mask-type:luminance" maskUnits="userSpaceOnUse" x="14" y="0" width="9" height="9">
<g id="clip-path-2">
<path id="SVGID_4" d="M14.8321 0H21.4107C21.6135 0.00166413 21.8074 0.0833868 21.9502 0.227367C22.093 0.371348 22.1731 0.565922 22.1731 0.768707V7.34733C22.1715 7.54972 22.0901 7.74332 21.9468 7.88618C21.8034 8.02905 21.6095 8.10969 21.4071 8.11063H14.8321C14.6288 8.11063 14.4337 8.03017 14.2895 7.88681C14.1453 7.74345 14.0637 7.54886 14.0625 7.34552V0.769608C14.0625 0.565496 14.1436 0.369743 14.2879 0.225413C14.4322 0.0810835 14.628 0 14.8321 0Z" fill="white"/>
</g>
</mask>
<g mask="url(#mask1_1625_111991)">
<g id="Group 5">
<path id="Rectangle 2" d="M37.8144 -1.57031H-1.57617V37.8203H37.8144V-1.57031Z" fill="white"/>
</g>
</g>
</g>
</g>
<g id="Group 8">
<path id="SVGID_5" d="M4.5424 12.1737H11.8023C11.9156 12.1737 12.0242 12.1287 12.1044 12.0486C12.1845 11.9685 12.2295 11.8599 12.2295 11.7466V4.48576C12.2295 4.37247 12.1845 4.26382 12.1044 4.18371C12.0242 4.1036 11.9156 4.05859 11.8023 4.05859H4.5424C4.48627 4.05848 4.43067 4.06944 4.37879 4.09087C4.32691 4.11229 4.27977 4.14375 4.24008 4.18344C4.20039 4.22313 4.16893 4.27027 4.14751 4.32215C4.12608 4.37403 4.11512 4.42963 4.11524 4.48576V11.7466C4.11547 11.8598 4.16056 11.9683 4.24061 12.0484C4.32067 12.1284 4.42918 12.1735 4.5424 12.1737Z" fill="white"/>
<g id="Clip path group_3">
<mask id="mask2_1625_111991" style="mask-type:luminance" maskUnits="userSpaceOnUse" x="4" y="4" width="9" height="9">
<g id="clip-path-3">
<path id="SVGID_6" d="M4.5424 12.1757H11.8023C11.9156 12.1757 12.0242 12.1307 12.1044 12.0506C12.1845 11.9705 12.2295 11.8618 12.2295 11.7485V4.48771C12.2295 4.37442 12.1845 4.26577 12.1044 4.18566C12.0242 4.10555 11.9156 4.06055 11.8023 4.06055H4.5424C4.48627 4.06043 4.43067 4.0714 4.37879 4.09282C4.32691 4.11425 4.27977 4.14571 4.24008 4.1854C4.20039 4.22509 4.16893 4.27222 4.14751 4.3241C4.12608 4.37598 4.11512 4.43158 4.11524 4.48771V11.7485C4.11547 11.8617 4.16056 11.9702 4.24061 12.0503C4.32067 12.1304 4.42918 12.1754 4.5424 12.1757Z" fill="white"/>
</g>
</mask>
<g mask="url(#mask2_1625_111991)">
<g id="Group 7">
<path id="Rectangle 3" d="M37.8144 -1.63281H-1.57617V37.7578H37.8144V-1.63281Z" fill="white"/>
</g>
</g>
</g>
</g>
<g id="Group 10">
<path id="SVGID_7" d="M8.10973 21.7563V14.4964C8.10996 14.4402 8.09909 14.3845 8.07771 14.3325C8.05634 14.2806 8.0249 14.2333 7.9852 14.1935C7.9455 14.1537 7.89832 14.1222 7.84638 14.1007C7.79444 14.0792 7.73877 14.0682 7.68257 14.0684H0.427161C0.313788 14.0686 0.20514 14.1138 0.125058 14.1941C0.0449756 14.2743 -2.51241e-07 14.383 0 14.4964V21.7563C-2.51241e-07 21.8697 0.0449756 21.9784 0.125058 22.0587C0.20514 22.1389 0.313788 22.1842 0.427161 22.1844H7.68798C7.80048 22.183 7.90788 22.1372 7.98685 22.0571C8.06582 21.9769 8.10997 21.8688 8.10973 21.7563Z" fill="white"/>
<g id="Clip path group_4">
<mask id="mask3_1625_111991" style="mask-type:luminance" maskUnits="userSpaceOnUse" x="0" y="14" width="9" height="9">
<g id="clip-path-4">
<path id="SVGID_8" d="M8.10973 21.7544V14.4945C8.10996 14.4383 8.09909 14.3826 8.07771 14.3306C8.05634 14.2786 8.0249 14.2314 7.9852 14.1916C7.9455 14.1518 7.89832 14.1202 7.84638 14.0988C7.79444 14.0773 7.73877 14.0663 7.68257 14.0664H0.427161C0.313788 14.0666 0.20514 14.1118 0.125058 14.1921C0.0449756 14.2724 -2.51241e-07 14.3811 0 14.4945V21.7544C-2.51241e-07 21.8678 0.0449756 21.9765 0.125058 22.0567C0.20514 22.137 0.313788 22.1822 0.427161 22.1824H7.68798C7.80048 22.181 7.90788 22.1353 7.98685 22.0551C8.06582 21.975 8.10997 21.8669 8.10973 21.7544Z" fill="white"/>
</g>
</mask>
<g mask="url(#mask3_1625_111991)">
<g id="Group 9">
<path id="Rectangle 4" d="M37.8164 -1.57031H-1.57422V37.8203H37.8164V-1.57031Z" fill="white"/>
</g>
</g>
</g>
</g>
<g id="Group 12">
<path id="SVGID_9" d="M28.8985 14.0684H35.4771C35.68 14.0703 35.8739 14.1522 36.0167 14.2963C36.1595 14.4404 36.2396 14.6351 36.2395 14.838V21.4166C36.2395 21.5178 36.2196 21.618 36.1809 21.7114C36.1422 21.8049 36.0854 21.8899 36.0139 21.9614C35.9423 22.033 35.8574 22.0897 35.7639 22.1284C35.6704 22.1672 35.5702 22.1871 35.469 22.1871H28.8994C28.7979 22.1871 28.6974 22.167 28.6037 22.1281C28.51 22.0892 28.4249 22.0321 28.3533 21.9601C28.2817 21.8882 28.225 21.8029 28.1865 21.709C28.148 21.6151 28.1284 21.5145 28.1289 21.413V14.838C28.1289 14.6339 28.21 14.4381 28.3543 14.2938C28.4987 14.1494 28.6944 14.0684 28.8985 14.0684Z" fill="white"/>
<g id="Clip path group_5">
<mask id="mask4_1625_111991" style="mask-type:luminance" maskUnits="userSpaceOnUse" x="28" y="14" width="9" height="9">
<g id="clip-path-5">
<path id="SVGID_10" d="M28.8985 14.0664H35.4771C35.68 14.0683 35.8739 14.1502 36.0167 14.2944C36.1595 14.4385 36.2396 14.6331 36.2395 14.836V21.4146C36.2395 21.5158 36.2196 21.616 36.1809 21.7095C36.1422 21.803 36.0854 21.8879 36.0139 21.9595C35.9423 22.031 35.8574 22.0878 35.7639 22.1265C35.6704 22.1652 35.5702 22.1851 35.469 22.1851H28.8994C28.7979 22.1851 28.6974 22.1651 28.6037 22.1261C28.51 22.0872 28.4249 22.0301 28.3533 21.9582C28.2817 21.8863 28.225 21.8009 28.1865 21.707C28.148 21.6131 28.1284 21.5125 28.1289 21.411V14.836C28.1289 14.6319 28.21 14.4361 28.3543 14.2918C28.4987 14.1475 28.6944 14.0664 28.8985 14.0664Z" fill="white"/>
</g>
</mask>
<g mask="url(#mask4_1625_111991)">
<g id="Group 11">
<path id="Rectangle 5" d="M37.8144 -1.57031H-1.57617V37.8203H37.8144V-1.57031Z" fill="white"/>
</g>
</g>
</g>
</g>
<g id="Group 14">
<path id="SVGID_11" d="M31.7602 24.0137H24.4994C24.3861 24.0137 24.2775 24.0587 24.1974 24.1388C24.1173 24.2189 24.0723 24.3275 24.0723 24.4408V31.7017C24.0723 31.8149 24.1173 31.9236 24.1974 32.0037C24.2775 32.0838 24.3861 32.1288 24.4994 32.1288H31.7593C31.8726 32.1288 31.9813 32.0838 32.0614 32.0037C32.1415 31.9236 32.1865 31.8149 32.1865 31.7017V24.4408C32.1863 24.3278 32.1413 24.2194 32.0614 24.1394C31.9816 24.0593 31.8733 24.0141 31.7602 24.0137Z" fill="white"/>
<g id="Clip path group_6">
<mask id="mask5_1625_111991" style="mask-type:luminance" maskUnits="userSpaceOnUse" x="24" y="24" width="9" height="9">
<g id="clip-path-6">
<path id="SVGID_12" d="M31.7602 24.0137H24.4994C24.3861 24.0137 24.2775 24.0587 24.1974 24.1388C24.1173 24.2189 24.0723 24.3275 24.0723 24.4408V31.7017C24.0723 31.8149 24.1173 31.9236 24.1974 32.0037C24.2775 32.0838 24.3861 32.1288 24.4994 32.1288H31.7593C31.8726 32.1288 31.9813 32.0838 32.0614 32.0037C32.1415 31.9236 32.1865 31.8149 32.1865 31.7017V24.4408C32.1863 24.3278 32.1413 24.2194 32.0614 24.1394C31.9816 24.0593 31.8733 24.0141 31.7602 24.0137Z" fill="white"/>
</g>
</mask>
<g mask="url(#mask5_1625_111991)">
<g id="Group 13">
<path id="Rectangle 6" d="M37.8789 -1.57031H-1.51172V37.8203H37.8789V-1.57031Z" fill="white"/>
</g>
</g>
</g>
</g>
<g id="Group 16">
<path id="SVGID_13" d="M11.8032 24.0137H4.5424C4.42918 24.0139 4.32067 24.059 4.24061 24.139C4.16056 24.2191 4.11547 24.3276 4.11523 24.4408V31.7016C4.11523 31.8149 4.16024 31.9236 4.24035 32.0037C4.32046 32.0838 4.42911 32.1288 4.5424 32.1288H11.8023C11.8586 32.1289 11.9143 32.1179 11.9663 32.0965C12.0182 32.075 12.0655 32.0435 12.1053 32.0037C12.145 31.9639 12.1766 31.9167 12.198 31.8647C12.2195 31.8127 12.2305 31.757 12.2304 31.7007V24.4399C12.2304 24.3839 12.2193 24.3284 12.1978 24.2766C12.1764 24.2248 12.1449 24.1778 12.1052 24.1382C12.0655 24.0986 12.0184 24.0672 11.9666 24.0459C11.9148 24.0245 11.8593 24.0136 11.8032 24.0137Z" fill="white"/>
<g id="Clip path group_7">
<mask id="mask6_1625_111991" style="mask-type:luminance" maskUnits="userSpaceOnUse" x="4" y="24" width="9" height="9">
<g id="clip-path-7">
<path id="SVGID_14" d="M11.8032 24.0137H4.5424C4.42918 24.0139 4.32067 24.059 4.24061 24.139C4.16056 24.2191 4.11547 24.3276 4.11523 24.4408V31.7016C4.11523 31.8149 4.16024 31.9236 4.24035 32.0037C4.32046 32.0838 4.42911 32.1288 4.5424 32.1288H11.8023C11.8586 32.1289 11.9143 32.1179 11.9663 32.0965C12.0182 32.075 12.0655 32.0435 12.1053 32.0037C12.145 31.9639 12.1766 31.9167 12.198 31.8647C12.2195 31.8127 12.2305 31.757 12.2304 31.7007V24.4399C12.2304 24.3839 12.2193 24.3284 12.1978 24.2766C12.1764 24.2248 12.1449 24.1778 12.1052 24.1382C12.0655 24.0986 12.0184 24.0672 11.9666 24.0459C11.9148 24.0245 11.8593 24.0136 11.8032 24.0137Z" fill="white"/>
</g>
</mask>
<g mask="url(#mask6_1625_111991)">
<g id="Group 15">
<path id="Rectangle 7" d="M37.8144 -1.57227H-1.57617V37.8183H37.8144V-1.57227Z" fill="white"/>
</g>
</g>
</g>
</g>
<g id="Group 18">
<path id="SVGID_15" d="M14.8321 28.1348H21.4107C21.6135 28.1364 21.8074 28.2182 21.9502 28.3621C22.093 28.5061 22.1731 28.7007 22.1731 28.9035V35.4821C22.1715 35.6845 22.0901 35.8781 21.9468 36.0209C21.8034 36.1638 21.6095 36.2445 21.4071 36.2454H14.8321C14.6288 36.2454 14.4337 36.1649 14.2895 36.0216C14.1453 35.8782 14.0637 35.6836 14.0625 35.4803V28.9044C14.0625 28.7003 14.1436 28.5045 14.2879 28.3602C14.4322 28.2158 14.628 28.1348 14.8321 28.1348Z" fill="white"/>
<g id="Clip path group_8">
<mask id="mask7_1625_111991" style="mask-type:luminance" maskUnits="userSpaceOnUse" x="14" y="28" width="9" height="9">
<g id="clip-path-2_2">
<path id="SVGID_16" d="M14.8321 28.1328H21.4107C21.6135 28.1345 21.8074 28.2162 21.9502 28.3602C22.093 28.5042 22.1731 28.6987 22.1731 28.9015V35.4801C22.1715 35.6825 22.0901 35.8761 21.9468 36.019C21.8034 36.1619 21.6095 36.2425 21.4071 36.2434H14.8321C14.6288 36.2434 14.4337 36.163 14.2895 36.0196C14.1453 35.8763 14.0637 35.6817 14.0625 35.4783V28.9024C14.0625 28.6983 14.1436 28.5026 14.2879 28.3582C14.4322 28.2139 14.628 28.1328 14.8321 28.1328Z" fill="white"/>
</g>
</mask>
<g mask="url(#mask7_1625_111991)">
<g id="Group 17">
<path id="Rectangle 8" d="M37.8144 -1.57031H-1.57617V37.8203H37.8144V-1.57031Z" fill="white"/>
</g>
</g>
</g>
</g>
</g>
</g>
</svg>
